<?xml version="1.0" encoding="UTF-8"?>
<svg id="Layer_1" xmlns="http://www.w3.org/2000/svg" viewBox="0 0 130.34 98.85">
  <defs>
    <style>
      .cls-1 {
        fill: #f56c1d;
      }

      .cls-2 {
        fill: #fff;
      }

      .cls-3 {
        fill: #f77421;
      }

      .cls-4 {
        fill: #1a3d9d;
      }

      .cls-5 {
        fill: #f2ca99;
      }

      .cls-6 {
        fill: #f66d1d;
      }
    </style>
  </defs>
  <polygon class="cls-4" points="84.89 52.15 130.34 29.5 126.29 75.4 84.89 96.7 84.89 52.15"/>
  <polygon class="cls-1" points="80.34 47.85 97.59 39.6 48.69 15.45 31.59 23.7 80.34 47.85"/>
  <polygon class="cls-6" points="66.59 7.5 81.74 0 130.34 23.25 114.74 31.65 66.59 7.5"/>
  <polygon class="cls-5" points="112.51 32 98.04 39.05 49.89 15.05 64.74 7.62 112.51 32"/>
  <path class="cls-4" d="M62.1,61.39c-.2.84-14.66.13-29.08-6.21-16.66-7.33-27.39-19.6-27.12-19.93.15-.19,3.96,3.6,11.7,8.25,4.79,2.88,9.37,5.02,15.19,7.31,4.49,1.76,9.74,3.61,16.4,5.95,9.94,3.49,13,4.23,12.91,4.63Z"/>
  <path class="cls-4" d="M59.61,79.09c-.18.77-12.42.23-25.6-4.78-1.16-.44-2.32-.92-3.48-1.43C13.87,65.55,3.15,53.28,3.41,52.95c.16-.19,3.97,3.6,11.7,8.25,5.71,3.43,11.11,5.81,18.66,8.64,3.69,1.37,7.9,2.86,12.93,4.62,9.95,3.49,13,4.23,12.91,4.63Z"/>
  <path class="cls-3" d="M78.4,54v44.85l-44.1-18.85-.23-4.55c13.38,5.8,27.85,4.69,28.03,3.92.09-.4-5.46-2.23-15.41-5.72-5.03-1.76-9.32-4.22-13.01-5.59l-.58-11.36c14.95,5.63,29.6,5.82,29.8,4.98.09-.4-4.31-2.26-14.25-6.78-6.6-3-12.15-5.32-16.07-8.09l-.78-15.16,46.6,22.35Z"/>
  <path class="cls-4" d="M59.61,79.09c-.18.77-12.42.23-25.6-4.78l-.24-4.47c3.69,1.37,7.9,2.86,12.93,4.62,9.95,3.49,13,4.23,12.91,4.63Z"/>
  <path class="cls-4" d="M62.1,61.39c-.2.84-14.66.13-29.08-6.21l-.23-4.37c4.49,1.76,9.74,3.61,16.4,5.95,9.94,3.49,13,4.23,12.91,4.63Z"/>
  <g>
    <path class="cls-2" d="M119.57,65.79c-.04.28-.09.59-.14.9-.18,1-.36,2-.54,3-.08.47-.16.94-.26,1.4-.09.38-.34.64-.68.81-1.02.52-2.05,1.04-3.08,1.56-1.43.73-2.87,1.46-4.3,2.19-1.58.8-3.17,1.59-4.75,2.38-.61.3-1.21.62-1.81.93-.37.19-.48.14-.74-.21-.19-.24-.43-.46-.7-.62-.59-.36-1-.86-1.33-1.44-.16-.28-.29-.57-.41-.87-.02-.05.03-.19.09-.22.85-.43,1.71-.84,2.58-1.25.1-.05.23-.05.34-.03.13.02.25.07.37.12.66.28,1.28.2,1.9-.14,1.4-.76,2.82-1.48,4.22-2.22,1.08-.57,2.16-1.15,3.23-1.74.51-.28.78-.76,1-1.28.22-.52.44-1.04.96-1.34.59-.34,1.19-.66,1.78-.99.65-.36,1.3-.72,1.95-1.08.2-.11.3-.08.31.13Z"/>
    <path class="cls-2" d="M104.11,62.5c.04-1.51.23-2.99.12-4.48-.1.3-.21.59-.28.9-.06.26-.18.43-.43.57-1.03.58-2.1,1.05-3.26,1.32-1.41.34-2.85.47-4.3.51-.02,0-.05.01-.07,0-.13-.06-.32-.09-.37-.19-.08-.18.11-.27.25-.36.19-.11.37-.23.57-.35-.67-.87-1.33-1.74-1.99-2.59.38-.4,1.08-.52,1.53-.28.81.44,1.63.87,2.45,1.3.4.21.75.04,1.1-.16,1.18-.67,2.36-1.33,3.54-2,.03-.02.06-.05.12-.1-1.24-.67-2.46-1.34-3.72-2.02.57-.37,1.09-.78,1.79-.69.53.07,1.06.18,1.6.27,1.16.2,2.32.4,3.48.58.1.02.22-.02.32-.07,1.2-.67,2.38-1.36,3.58-2.02.54-.3,1.13-.47,1.77-.44.06,0,.11,0,.17.01.05,0,.11.03.23.06-.2.1-.35.17-.49.24-.11.05-.22.1-.33.17-.11.07-.28.1-.17.3.09.18.28.28.46.19.31-.15.61-.3.9-.48.29-.19.58-.27.93-.23.36.04.56.33.44.67-.16.47-.51.8-.85,1.13-.74.7-1.69,1.06-2.57,1.55-.96.53-1.94,1.03-2.94,1.55.03-.46.05-.91.07-1.35-.01,0-.03,0-.04-.01-.18.47-.37.94-.55,1.41-.47,1.22-.94,2.43-1.39,3.65-.22.59-.68.91-1.18,1.2-.14.08-.28.14-.45.23Z"/>
    <path class="cls-2" d="M115.91,66.61c-.35-.73-.99-.82-1.66-.76-.77.07-1.54.2-2.31.3-.79.11-1.58.17-2.36-.01-1.22-.29-2.02-1.07-2.44-2.25-.24-.66-.37-1.34-.29-2.05.09-.78.33-1.5.76-2.17.78-1.19,1.87-1.96,3.15-2.52.78-.35,1.59-.56,2.43-.6.55-.02,1.11.06,1.67.11.14.01.21.08.2.27-.05.88-.06,1.75-.09,2.61-.44-.04-.87-.11-1.31-.12-1.05-.03-2.02.25-2.9.84-.46.31-.82.69-1,1.23-.22.66.1,1.57,1.08,1.62.79.04,1.55-.13,2.32-.25.89-.14,1.79-.28,2.68-.12.78.14,1.46.5,1.94,1.14.25.33.41.72.63,1.07.1.16.03.24-.1.31-.74.41-1.49.82-2.23,1.23-.05.03-.09.06-.17.11Z"/>
    <path class="cls-2" d="M96.62,61.89c.82-.09,1.62-.17,2.41-.27.64-.08.63-.09.83.53.38,1.16.77,2.31,1.15,3.47,0,0,.01.01.04.03,1.52-.8,3.05-1.61,4.61-2.43.13.95.46,1.79,1.02,2.55-.83.44-1.64.87-2.45,1.3-.71.38-1.43.75-2.14,1.12-.13.07-.18.11-.12.28.53,1.56,1.05,3.13,1.57,4.69.04.12.07.21-.08.28-.83.41-1.65.83-2.48,1.24-.01,0-.03,0-.08,0-1.42-4.25-2.85-8.51-4.28-12.79Z"/>
    <path class="cls-2" d="M103.9,71.05c.32-.16.6-.31.92-.47-.12-.36-.24-.73-.37-1.1-.11-.33-.1-.36.28-.45.17.43.34.86.52,1.32.51-.26.99-.51,1.5-.76.06.16.14.31.15.46,0,.11-.06.28-.15.34-.29.19-.6.34-.91.5-.3.15-.3.15-.13.49.34-.17.68-.35,1.07-.55.22.65.44,1.28.67,1.96-.28.14-.56.29-.85.44-.43.23-.86.47-1.3.69-.25.13-.41.07-.5-.19-.3-.88-.59-1.76-.9-2.66Z"/>
    <path class="cls-2" d="M110.34,68.62c.1.3.2.61.31.93-.7.36-1.41.73-2.14,1.11-.11-.3-.21-.58-.3-.87-.01-.04.03-.13.07-.15.64-.34,1.29-.67,1.93-1.01.03-.02.08,0,.13,0Z"/>
    <path class="cls-2" d="M113.2,68.59c.12.34.22.65.34.98-.71.37-1.41.73-2.14,1.11-.11-.33-.21-.61-.3-.9,0-.03.04-.1.08-.12.67-.35,1.34-.7,2.03-1.07Z"/>
    <path class="cls-2" d="M110.96,69.38c-.11-.31-.21-.6-.3-.89-.01-.04.03-.13.08-.15.62-.32,1.25-.63,1.87-.96.13-.07.18-.06.21.09.05.2.12.4.21.59.07.16.02.24-.13.31-.64.32-1.27.65-1.94,1Z"/>
    <path class="cls-2" d="M110.75,69.86c.1.3.2.57.28.85.02.05-.01.16-.05.18-.66.35-1.33.69-1.99,1.03-.01,0-.03,0-.07,0-.1-.3-.2-.6-.32-.93.71-.37,1.41-.75,2.15-1.13Z"/>
  </g>
</svg>